<svg width="42" height="30" viewBox="0 0 42 30" fill="none" xmlns="http://www.w3.org/2000/svg">
<path d="M40.9557 23.5208L38.685 7.56251C38.1017 3.45834 34.5811 0.416672 30.4355 0.416672H11.5615C7.41593 0.416672 3.8953 3.45834 3.312 7.56251L1.04129 23.5208C0.582983 26.7292 3.06201 29.5833 6.29099 29.5833C7.70758 29.5833 9.04084 29.0208 10.0408 28.0208L14.7488 23.3333H27.2481L31.9354 28.0208C32.9353 29.0208 34.2894 29.5833 35.6852 29.5833C38.935 29.5833 41.414 26.7292 40.9557 23.5208ZM18.9153 12.9167H14.7488V17.0833H12.6656V12.9167H8.4992V10.8333H12.6656V6.66667H14.7488V10.8333H18.9153V12.9167ZM27.2481 10.8333C26.1024 10.8333 25.1649 9.89584 25.1649 8.75001C25.1649 7.60417 26.1024 6.66667 27.2481 6.66667C28.3939 6.66667 29.3314 7.60417 29.3314 8.75001C29.3314 9.89584 28.3939 10.8333 27.2481 10.8333ZM31.4146 17.0833C30.2688 17.0833 29.3314 16.1458 29.3314 15C29.3314 13.8542 30.2688 12.9167 31.4146 12.9167C32.5603 12.9167 33.4978 13.8542 33.4978 15C33.4978 16.1458 32.5603 17.0833 31.4146 17.0833Z" fill="#2A7AE4"/>
</svg>
